<svg id="Camada_2" data-name="Camada 2" xmlns="http://www.w3.org/2000/svg" viewBox="0 0 530 530"><defs><style>.cls-1{fill:#1a1a1a;}.cls-2{fill:#fff;}</style></defs><rect class="cls-1" width="530" height="530"/><rect class="cls-2" x="50" y="50" width="430" height="430"/><path class="cls-1" d="M340.83,422.58v-112l158.5.5c35.46.5,55.34,1.63,74,15,17.88,12.81,40,33,41,73,1.7,68-34,94-81,109l123.5,123.5h-107l-123.5-123.5h-45.5L505.08,632.33H340.83V464.58h163.5a53.93,53.93,0,0,0,36.63-14c10.14-9.35,19.09-24.86,19.37-50.52,0-1.89-.37-.11-.25-2,.59-8.79-7.46-36.61-34.63-42.55a46,46,0,0,0-9.72-1h-97.9v40h92.36a11.6,11.6,0,0,1,7,2.25c2.62,2,5.12,5.75,4.62,12.75l0,.42A16,16,0,0,1,506,424.68l-165.19,1.9Z" transform="translate(-233.83 -206.46)"/></svg>