<svg width="35" height="35" viewBox="0 0 35 35" fill="none" xmlns="http://www.w3.org/2000/svg">
<rect width="35" height="35" fill="#6250FF"/>
<path d="M17.8477 9.64844C19.2539 9.64844 20.5365 9.99349 21.6953 10.6836C22.8542 11.3737 23.7786 12.3047 24.4688 13.4766C25.1589 14.6354 25.5039 15.918 25.5039 17.3242C25.5039 18.7305 25.1589 20.013 24.4688 21.1719C23.7786 22.3307 22.8542 23.2617 21.6953 23.9648C20.5365 24.6549 19.2474 25 17.8281 25H13.2969V27.168L10.1719 28.7305V25V23.4375V17.3242C10.1719 15.918 10.5169 14.6354 11.207 13.4766C11.8971 12.3177 12.8216 11.3932 13.9805 10.7031C15.1523 10 16.4414 9.64844 17.8477 9.64844ZM17.8281 21.875C19.0911 21.875 20.1654 21.4323 21.0508 20.5469C21.9362 19.6484 22.3789 18.5742 22.3789 17.3242C22.3789 16.0742 21.9362 15.0065 21.0508 14.1211C20.1654 13.2227 19.0977 12.7734 17.8477 12.7734C16.5977 12.7734 15.5234 13.2227 14.625 14.1211C13.7396 15.0065 13.2969 16.0742 13.2969 17.3242V21.875H17.8281Z" fill="white"/>
</svg>