<svg xmlns="http://www.w3.org/2000/svg" width="2500" height="96" viewBox="0 0 2500 96" fill="none">
<path d="M-84 94L-38 48C-12.5949 22.5949 28.5949 22.5949 54 48V48C79.4051 73.4051 120.595 73.4051 146 48V48C171.405 22.5949 212.595 22.5949 238 48V48C263.405 73.4051 304.595 73.4051 330 48V48C355.405 22.5949 396.595 22.5949 422 48V48C447.405 73.4051 488.595 73.4051 514 48V48C539.405 22.5949 580.595 22.5949 606 48V48C631.405 73.4051 672.595 73.4051 698 48V48C723.405 22.5949 764.595 22.5949 790 48V48C815.405 73.4051 856.595 73.4051 882 48V48C907.405 22.5949 948.595 22.5949 974 48V48C999.405 73.4051 1040.59 73.4051 1066 48V48C1091.41 22.5949 1132.59 22.5949 1158 48V48C1183.41 73.4051 1224.59 73.4051 1250 48V48C1275.41 22.5949 1316.59 22.5949 1342 48V48C1367.41 73.4051 1408.59 73.4051 1434 48V48C1459.41 22.5949 1500.59 22.5949 1526 48V48C1551.41 73.4051 1592.59 73.4051 1618 48V48C1643.41 22.5949 1684.59 22.5949 1710 48V48C1735.41 73.4051 1776.59 73.4051 1802 48V48C1827.41 22.5949 1868.59 22.5949 1894 48V48C1919.41 73.4051 1960.59 73.4051 1986 48V48C2011.41 22.5949 2052.59 22.5949 2078 48V48C2103.41 73.4051 2144.59 73.4051 2170 48V48C2195.41 22.5949 2236.59 22.5949 2262 48V48C2287.41 73.4051 2328.59 73.4051 2354 48V48C2379.41 22.5949 2420.59 22.5949 2446 48V48C2471.41 73.4051 2512.59 73.4051 2538 48L2584 2" stroke="#78FF69" stroke-width="4"/>
</svg>